<svg width="221" height="495" viewBox="0 0 221 495" fill="none" xmlns="http://www.w3.org/2000/svg">
<path d="M125.877 332.032C115.481 308.839 111.362 283.323 113.933 258.037C116.503 232.752 125.672 208.586 140.522 187.959C155.372 167.333 175.381 150.971 198.545 140.512C221.708 130.053 247.214 125.864 272.506 128.365C297.799 130.866 321.99 139.969 342.657 154.762C363.324 169.555 379.741 189.519 390.263 212.654C400.786 235.789 405.045 261.283 402.613 286.582C400.182 311.881 391.145 336.097 376.409 356.805L350.492 338.36C361.996 322.194 369.051 303.289 370.949 283.539C372.847 263.788 369.522 243.885 361.307 225.824C353.092 207.763 340.276 192.177 324.142 180.629C308.007 169.08 289.122 161.973 269.376 160.021C249.631 158.068 229.719 161.339 211.635 169.504C193.552 177.669 177.931 190.443 166.338 206.545C154.745 222.648 147.587 241.514 145.58 261.254C143.573 280.994 146.789 300.915 154.905 319.021L125.877 332.032Z" fill="#FEA091"/>
<path d="M53.5735 194.962C62.4477 162.334 79.406 132.47 102.88 108.132C126.355 83.794 155.587 65.7684 187.874 55.7218C220.16 45.6752 254.459 43.9321 287.598 50.6537C320.737 57.3754 351.646 72.3447 377.467 94.1773C403.287 116.01 423.186 144.001 435.322 175.562C447.459 207.122 451.441 241.234 446.9 274.741C442.36 308.249 429.444 340.071 409.346 367.264C389.249 394.457 362.619 416.143 331.919 430.317L313.432 390.275C337.399 379.209 358.188 362.279 373.878 341.05C389.568 319.821 399.651 294.978 403.196 268.819C406.74 242.66 403.632 216.03 394.157 191.391C384.682 166.752 369.148 144.9 348.99 127.856C328.832 110.811 304.702 99.1249 278.831 93.8774C252.96 88.63 226.183 89.9908 200.978 97.834C175.772 105.677 152.951 119.75 134.625 138.75C116.299 157.75 103.059 181.064 96.1315 206.537L53.5735 194.962Z" fill="#86DDEA"/>
</svg>
