<svg width="160" height="64" viewBox="0 0 160 64" fill="none" xmlns="http://www.w3.org/2000/svg">
<path d="M17.9455 14C8.05575 14 0 22.076 0 32C0 36.8422 1.86825 41.3764 5.26194 44.7643C8.6385 48.135 13.1463 50 17.9455 50C22.7618 50 27.2867 48.135 30.6633 44.7643C34.0398 41.3764 35.8909 36.8593 35.8909 32C35.8909 27.192 34.0398 22.6749 30.6633 19.27C27.2696 15.8821 22.7618 14 17.9455 14ZM8.65564 41.3764C6.4446 39.1521 5.12483 36.2776 4.85059 33.1635C11.1409 30.7338 15.1345 29.8612 17.9969 30.2548C18.5454 30.3403 18.8367 30.4259 18.991 30.4943C18.991 30.8536 18.8539 31.5722 18.7682 32.0684C18.4254 33.8308 17.9626 36.2433 19.2481 38.673C20.2593 40.5894 22.1276 42.0608 24.9728 43.1901C22.8989 44.5076 20.4822 45.2091 17.9283 45.2091C14.4318 45.2091 11.1409 43.8403 8.65564 41.3764ZM28.8464 39.4259C25.9498 38.6217 24.0987 37.5779 23.4816 36.4145C22.9846 35.4905 23.2245 34.2757 23.4816 32.9753C23.7902 31.384 24.1672 29.3992 22.9674 27.7053C22.1276 26.5247 20.7221 25.8061 18.6825 25.5152C15.3402 25.0361 11.3637 25.7205 5.48476 27.8251C7.21589 22.5894 12.1522 18.7909 17.9455 18.7909C21.4763 18.7909 24.7843 20.1597 27.2524 22.6578C29.7206 25.1388 31.0918 28.4753 31.0918 32C31.0918 34.7034 30.3033 37.27 28.8464 39.4259Z" fill="white"/>
<path d="M69.5189 22.5378C67.5821 20.7926 64.9082 19.9028 61.566 19.9028H53.5273V44.2507H58.4808V38.6899H61.5831C64.9082 38.6899 67.5821 37.8002 69.536 36.0549C71.49 34.3097 72.4669 32.034 72.4669 29.2793C72.4498 26.5587 71.4728 24.2831 69.5189 22.5378ZM67.7535 29.2793C67.7535 30.8534 67.205 32.0511 66.108 32.8382C65.0111 33.6253 63.6056 34.0359 61.9602 34.0359H58.4808V24.5739H61.9602C63.5885 24.5739 64.9939 24.9846 66.0909 25.8059C67.1878 26.6101 67.7535 27.7736 67.7535 29.2793Z" fill="white"/>
<path d="M80.3512 30.272H75.792V44.2682H80.3512V30.272Z" fill="white"/>
<path d="M89.5046 19.9028H84.9111V44.2507H89.5046V19.9028Z" fill="white"/>
<path d="M101.28 26.5762C98.829 26.5762 96.6865 27.4488 94.9554 29.194C93.2243 30.9222 92.333 33.061 92.333 35.542C92.333 37.9887 93.2071 40.1275 94.9383 41.8556C96.6694 43.5838 98.7947 44.4735 101.28 44.4735C103.765 44.4735 105.908 43.6009 107.639 41.8556C109.37 40.1275 110.261 37.9887 110.261 35.542C110.261 33.0952 109.387 30.9564 107.639 29.2112C105.891 27.4659 103.765 26.5762 101.28 26.5762ZM105.651 35.542C105.651 36.8766 105.205 37.9716 104.348 38.7929C103.474 39.6313 102.446 40.042 101.28 40.042C100.08 40.042 99.0518 39.6142 98.1948 38.7929C97.3379 37.9545 96.9094 36.8594 96.9094 35.542C96.9094 34.2074 97.355 33.1123 98.212 32.2739C99.0861 31.4355 100.115 31.0077 101.28 31.0077C102.446 31.0077 103.491 31.4355 104.348 32.2739C105.222 33.1123 105.651 34.2074 105.651 35.542Z" fill="white"/>
<path d="M119.019 21.0151H114.426V26.8155H112.181V31.23H114.426V44.268H119.019V31.23H121.282V26.8155H119.019V21.0151Z" fill="white"/>
<path d="M130.486 19.9028H126.407C126.253 19.9028 126.115 20.0055 126.081 20.1595L123.973 29.0568C123.956 29.1595 123.973 29.2621 124.042 29.3477C124.11 29.4332 124.196 29.4675 124.299 29.4675H127.024C127.161 29.4675 127.281 29.3819 127.332 29.245L130.778 20.3477C130.812 20.245 130.812 20.1253 130.743 20.0397C130.709 19.9542 130.606 19.9028 130.486 19.9028Z" fill="white"/>
<path d="M138.714 30.272H134.154V44.2682H138.714V30.272Z" fill="white"/>
<path d="M158.063 28.8689C156.76 27.3461 154.858 26.5762 152.389 26.5762C149.698 26.5762 147.71 27.5001 146.493 29.348L146.202 26.8157H143.1V44.2682H147.659V35.7131C147.659 34.1218 148.019 32.9412 148.704 32.1541C149.407 31.3842 150.401 30.9906 151.687 30.9906C154.206 30.9906 155.44 32.4108 155.44 35.3195V44.2511H160V35.0458C160.017 32.4621 159.348 30.3918 158.063 28.8689Z" fill="white"/>
<path d="M136.417 21.0151C135.629 21.0151 134.96 21.2889 134.429 21.8022C133.881 22.3326 133.606 22.9828 133.606 23.7699C133.606 24.5399 133.881 25.2072 134.429 25.7376C134.978 26.268 135.646 26.5246 136.417 26.5246C137.223 26.5246 137.909 26.2509 138.457 25.7376C139.006 25.2072 139.28 24.557 139.28 23.7699C139.28 22.9999 139.006 22.3326 138.457 21.8022C137.909 21.2718 137.223 21.0151 136.417 21.0151Z" fill="white"/>
<path d="M77.8489 20.7241C76.992 20.7241 76.2378 21.015 75.6379 21.5967C75.038 22.1785 74.7295 22.8971 74.7295 23.7526C74.7295 24.6082 75.038 25.3439 75.6379 25.9085C76.2378 26.4903 76.9748 26.7812 77.8489 26.7812C78.7402 26.7812 79.4944 26.4903 80.0943 25.9085C80.6942 25.3268 81.0027 24.6082 81.0027 23.7526C81.0027 22.8971 80.6942 22.1785 80.0943 21.5967C79.4944 21.015 78.7402 20.7241 77.8489 20.7241Z" fill="white"/>
</svg>
